<?xml version="1.0" encoding="utf-8"?>
<!-- Generator: Adobe Illustrator 18.0.0, SVG Export Plug-In . SVG Version: 6.00 Build 0)  -->
<!DOCTYPE svg PUBLIC "-//W3C//DTD SVG 1.1//EN" "http://www.w3.org/Graphics/SVG/1.1/DTD/svg11.dtd">
<svg version="1.1" id="Calque_1" xmlns="http://www.w3.org/2000/svg" xmlns:xlink="http://www.w3.org/1999/xlink" x="0px" y="0px"
	 viewBox="215.4 34.6 411.1 412.3" enable-background="new 215.4 34.6 411.1 412.3" xml:space="preserve">
<g>
	<g>
		<path d="M323.2,408.1c-0.4,0-0.8,0-1.2-0.1C322.5,408.1,322.9,408.1,323.2,408.1z"/>
		<path d="M327.6,408.3c-1.4,0-2.9-0.1-4.4-0.2C324.7,408.2,326.1,408.3,327.6,408.3z"/>
		<path d="M322.1,408.1c-1.1-0.1-2.1-0.1-3.2-0.2C320,407.9,321,408,322.1,408.1z"/>
		<path d="M327.8,408.3c-0.1,0-0.1,0-0.2,0C327.7,408.3,327.7,408.3,327.8,408.3z"/>
		<path d="M313.2,407.3c-1.3-0.1-2.5-0.3-3.8-0.5C310.6,407,311.9,407.2,313.2,407.3z"/>
		<path d="M318.9,407.8c-1.8-0.1-3.7-0.3-5.5-0.5C315.3,407.5,317.1,407.7,318.9,407.8z"/>
		<path d="M313.4,407.3c-0.1,0-0.2,0-0.3,0C313.3,407.3,313.4,407.3,313.4,407.3z"/>
		<path d="M496.4,425.8c-0.1,0.1-0.2,0.2-0.3,0.3C496.2,426,496.3,425.9,496.4,425.8z"/>
		<path d="M309.4,406.8c-0.2,0-0.4-0.1-0.6-0.1C309,406.8,309.2,406.8,309.4,406.8z"/>
		<path d="M496.4,425.8C496.4,425.8,496.4,425.8,496.4,425.8C496.4,425.8,496.4,425.8,496.4,425.8z"/>
		<path d="M484.9,437.8c3.9-3.6,7.6-7.5,11.2-11.6C492.5,430.2,488.8,434.1,484.9,437.8z"/>
		<path d="M414.5,442.6c-0.3,0.2-0.7,0.3-1.1,0.5C413.8,442.9,414.2,442.7,414.5,442.6z"/>
		<path d="M410.4,444.5c-1.8,0.8-3.6,1.6-5.5,2.4C406.8,446.1,408.6,445.3,410.4,444.5z"/>
		<path d="M428,416.6c-19.1,11.8-40.5,20.1-61.9,24.5C387.7,437,409.1,428.7,428,416.6z"/>
		<path d="M413.5,443.1c-1,0.5-2,1-3.1,1.4C411.5,444,412.5,443.5,413.5,443.1z"/>
		<path d="M320.1,63.5c1.1-1.2,2.2-2.4,2.6-3.8C321.8,61,321,62.3,320.1,63.5z"/>
		<path d="M238.2,146.5c-0.5,11.8,0.1,23.7,1.9,35.3C238.4,170.1,237.7,158.3,238.2,146.5z"/>
		<path d="M579.9,112.4c1.4,0.7,2.9,1.4,4.3,2.1C582.8,113.8,581.4,113.1,579.9,112.4z"/>
		<path d="M226.8,247.8c-4.3-7.6-8-15.4-11.4-23.6C218.7,232.3,222.5,240.2,226.8,247.8z"/>
		<path d="M227.7,249.3c-0.3-0.5-0.6-1-0.9-1.6C227.1,248.3,227.4,248.8,227.7,249.3z"/>
		<path d="M601.6,190.3c9.4,10,17.7,20.9,24.9,32.7C619.5,211.4,611.1,200.3,601.6,190.3z"/>
		<path d="M308.8,406.7c-1.3-0.2-2.5-0.4-3.8-0.6C306.3,406.4,307.5,406.6,308.8,406.7z"/>
		<path d="M626.5,265.3c-9.4-31.6-30.8-62-58.1-82.6C595.1,203.6,615.7,233.5,626.5,265.3z"/>
		<path d="M229.5,252.4c-0.6-1-1.2-2-1.8-3.1C228.3,250.4,228.9,251.4,229.5,252.4z"/>
		<path d="M300.7,405.5c-1.4-0.3-2.8-0.5-4.2-0.8C297.9,404.9,299.3,405.2,300.7,405.5z"/>
		<path d="M443.8,170.5c42.8-25.3,88.8-14.9,124.6,12.2c-24.1-18.9-53.2-30.4-84.7-29.3c-33.1,1.1-67.4,22.8-75.4,57.1
			c2.3-35.4,33.1-61.7,67.4-67.4c48.5-7.9,93.6,13.4,125.8,47.2c-18.8-20-41.7-35.8-67.6-44.9c-53.7-19.4-125.6,6.9-133.6,67.4
			c-2.3-53.7,50.2-87.9,99.4-86.8c45.7,1.1,90.2,24,119.9,58.2c-37.7-45.7-102.8-71.9-162.2-53.7c-36.5,11.4-66.2,45.7-61.7,85.7
			c-8-29.7,4.6-59.4,27.4-78.8c54.8-44.5,131.3-29.7,182.7,9.1C558,110,489.5,95.2,433.5,126c-32,18.3-53.7,54.8-43.4,91.4
			c-18.3-42.3,10.3-87.9,49.1-107.3c44.2-22.1,97-18.5,140.7,2.4c-48.3-23.3-106.8-27.7-155.6,4.4c-36.5,24-57.1,70.8-35.4,109.6
			c-34.3-42.3-4.6-102.8,38.8-127.9c40-22.8,85.7-24,127.9-14.8c-58.2-16-125.6-5.7-165.6,44.5c-25.1,30.8-27.4,74.2-5.7,105.1
			c-33.1-33.1-27.4-84.5,1.1-118.8c34.3-40,86.8-57.1,137-53.7c-50.2-4.6-100.5,11.4-135.9,49.1c-32,35.4-41.1,95.9-2.3,129
			c-27.4-16-40-50.2-34.3-82.2c12.6-66.2,73.1-103.9,133.6-113.1c-59.4,8-116.5,43.4-134.8,103.9c-10.3,35.4,1.1,77.7,33.1,97.1
			c-29.7-11.4-46.8-43.4-46.8-74.2c1.1-64,52.5-115.3,110.8-134.8c-46.8,14.8-87.9,49.1-106.2,95.9c-16,44.5-2.3,103.9,46.8,119.9
			c-48-4.6-71.9-56-65.1-100.5c8-50.2,40-91.4,82.2-116.5C338.7,70,287.3,159.1,336.4,228.8c12.6,17.1,32,27.4,52.5,28.5
			c-46.8,4.6-81.1-41.1-83.4-84.5c-2.3-49.1,20.6-97.1,56-129c-50.2,43.4-78.8,121.1-41.1,182.7c16,25.1,43.4,40,73.1,36.5
			c-30.8,11.4-64-5.7-83.4-32c-36.7-53.4-23.6-118.8,9.9-167.5c-1.7,1.7-3.5,3.3-4.2,5.2c-4.2,6.2-9.8,15.4-16,27.2
			c-13.8,34.7-17.2,73.5-5.8,108.9c14.8,41.1,56,75.4,101.6,65.1c-41.1,18.3-86.8-8-106.2-45.7c-22.8-44.5-19.4-98.2,1.1-142.8
			c-28.6,57.1-26.3,131.3,22.8,177c25.1,21.7,61.7,29.7,91.4,12.6c-38.8,30.8-94.8,11.4-122.2-28.5c-27.4-40-32-85.7-22.8-129
			c-13.7,57.1-1.1,122.2,50.2,159.9c29.7,22.8,73.1,25.1,100.5,0c-26.3,35.4-76.5,32-110.8,8c-34.3-24.6-53.7-60.7-59.7-99.5
			c6.6,43.9,29.4,85.2,70,108.6c34.3,19.4,81.1,16,106.2-16c-13.7,28.6-44.5,42.3-75.4,38.8c-65.1-8-107.4-67.4-118.8-127.9
			c10.3,67.4,64,133.6,135.9,131.3c26.3-1.1,52.5-16,64-40c-11.4,37.7-52.5,53.7-89.1,49.1c-44.4-6.2-78.5-33.9-101.1-69.5
			c12.4,19.6,28.2,36.9,48.6,51.2c22.8,14.8,46.8,22.8,73.1,21.7c34.3-2.3,67.4-22.8,76.5-57.1c-3.4,41.1-42.3,68.5-81.1,69.7
			c-53.7,1.1-103.9-30.8-132.5-75.4c35.4,58.2,113.1,99.4,179.3,65.1c22.8-12.6,40-36.5,40-62.8c6.9,35.4-20.6,68.5-52.5,81.1
			c-54.8,20.6-116.5-2.3-156.5-42.3c25.1,26.3,57.1,44.5,93.6,50.2c33.1,5.7,65.1-1.1,91.4-21.7c20.6-18.3,34.3-44.5,29.7-71.9
			c13.7,38.8-10.3,79.9-46.8,97.1c-49.1,22.8-107.3,12.6-151.9-16c33.1,22.8,71.9,32,111.9,29.7c54.8-3.4,108.5-53.7,93.6-111.9
			c16,34.3,2.3,74.2-26.3,97.1c-44.5,36.5-106.2,37.7-157.6,16C317,398.9,381,398.9,427.8,359c29.7-26.3,41.1-69.7,20.6-103.9
			c25.1,28.6,21.7,69.7,0,99.4c-29.7,38.9-75.2,55.3-120.6,54c34.2,1.1,68.2-7.8,98.9-28.8c42.3-29.7,60.5-90.2,25.1-130.2
			c33.1,25.1,34.3,71.9,13.7,106.2c-28.6,48-83.4,69.7-135.9,70.8c62.8,1.1,130.2-32,149.6-95.9c10.3-32-1.1-68.5-28.6-89.1
			c29.7,14.8,45.7,48,41.1,81.1c-5.1,40.7-30.6,73.1-63.7,94.2c34.9-21.6,62-54.8,67.2-97.7c3.4-32-10.3-68.5-41.1-82.2
			c40,11.4,57.1,56,50.2,94.8c-8.5,51.2-45,89.5-89.8,111c31.2-14.8,57.4-36.4,76.1-66.5c21.7-37.7,27.4-85.7-1.1-121.1
			c-11.4-12.6-25.1-20.6-41.1-25.1c48,2.3,75.4,51.4,71.9,95.9c-3.4,50.2-35.4,93.6-75.4,121.1c37.7-24,66.2-59.4,76.5-105.1
			c12.6-53.7-18.3-117.6-76.5-118.8c22.8-2.3,45.7,5.7,61.7,21.7c48.4,51.6,32.8,131.3-10.2,181c34.9-39.9,52.9-96.2,35.3-147.9
			c-12.6-36.5-50.2-66.2-90.2-58.2c30.8-11.4,65.1,1.1,85.7,26.3c41.1,52.5,29.7,125.6-5.7,175.9c32-44.5,42.3-105.1,20.6-156.5
			c-17.1-37.7-60.5-66.2-102.8-51.4c36.5-20.6,82.2-1.1,105.1,33.1c32,46.8,28.6,103.9,8,153c16-35.4,21.7-74.2,12.6-113.1
			c-13.7-59.4-76.5-107.3-133.6-75.4c25.1-20.6,60.5-21.7,89.1-5.7c58.2,34.3,74.2,106.2,61.7,166.7c13.7-58.2,1.1-125.6-51.4-164.4
			c-32-22.8-74.2-24-105.1,0c34.3-40,98.2-29.7,132.5,6.9c32,34.3,46.8,78.8,45.7,124.5c1.1-44.5-11.4-87.9-41.1-122.2
			c-35.4-41.1-106.2-56-141.6-9.1c14.8-30.8,51.4-43.4,84.5-37.7c64,12.6,102.8,71.9,114.2,131.3c-5.7-33.1-19.4-63.9-42.3-91.4
			c-40-49.1-126.8-64-163.3-5.7C419.8,189.9,430.1,178.5,443.8,170.5z M417.5,214.5c15.1,0,27.4,12.3,27.4,27.4
			c0,15.1-12.3,27.4-27.4,27.4c-15.1,0-27.4-12.3-27.4-27.4C390.1,226.8,402.4,214.5,417.5,214.5z"/>
		<path d="M305,406.2c-0.2,0-0.4-0.1-0.6-0.1C304.6,406.1,304.8,406.2,305,406.2z"/>
		<path d="M304.4,406.1c-1.2-0.2-2.5-0.4-3.7-0.6C301.9,405.7,303.2,405.9,304.4,406.1z"/>
		<path d="M231.4,255.6c-0.7-1-1.3-2.1-1.9-3.2C230.1,253.5,230.8,254.5,231.4,255.6z"/>
		<path d="M231.9,256.3c-0.2-0.3-0.3-0.5-0.5-0.8C231.6,255.8,231.8,256.1,231.9,256.3z"/>
	</g>
</g>
</svg>
