<svg xmlns="http://www.w3.org/2000/svg" data-name="Layer 1" viewBox="0 0 24 30" x="0px" y="0px"><title>rounded</title><path d="M12,3a9,9,0,1,0,9,9A9,9,0,0,0,12,3Zm0,17c-.72369,0-1.63873-1.09766-2.2674-3h4.5348C13.63873,18.90234,12.72369,20,12,20ZM9.44519,16a16.5144,16.5144,0,0,1-.41766-3h5.94494a16.5144,16.5144,0,0,1-.41766,3ZM4.06946,13h3.9566a18.03441,18.03441,0,0,0,.39466,3H5.08246A7.93232,7.93232,0,0,1,4.06946,13ZM9.24573,9h5.50854A17.98078,17.98078,0,0,1,15,12H9A17.98078,17.98078,0,0,1,9.24573,9ZM12,4c.84308,0,1.94879,1.481,2.55481,4H9.44519C10.05121,5.481,11.15692,4,12,4Zm3.97394,9h3.9566a7.93232,7.93232,0,0,1-1.013,3H15.57928A18.03441,18.03441,0,0,0,15.97394,13ZM16,12a19.33989,19.33989,0,0,0-.23248-3h3.64355A7.94979,7.94979,0,0,1,20,12Zm2.91754-4H15.57928a9.94838,9.94838,0,0,0-1.53466-3.72522A8.02041,8.02041,0,0,1,18.91754,8ZM9.95544,4.27478A9.94838,9.94838,0,0,0,8.42072,8H5.08246A8.0207,8.0207,0,0,1,9.95544,4.27478ZM4.589,9H8.23248A19.33989,19.33989,0,0,0,8,12H4A7.94983,7.94983,0,0,1,4.589,9Zm1.1759,8H8.67456a8.8028,8.8028,0,0,0,1.28088,2.72522A8.00929,8.00929,0,0,1,5.76489,17Zm8.27973,2.72522A8.8028,8.8028,0,0,0,15.3255,17h2.90961A8.00913,8.00913,0,0,1,14.04462,19.72522Z"/><text x="0" y="39" fill="#000000" font-size="5px" font-weight="bold" font-family="'Helvetica Neue', Helvetica, Arial-Unicode, Arial, Sans-serif">Created by Sophia</text><text x="0" y="44" fill="#000000" font-size="5px" font-weight="bold" font-family="'Helvetica Neue', Helvetica, Arial-Unicode, Arial, Sans-serif">from the Noun Project</text></svg>